<?xml version="1.0" encoding="UTF-8"?>
<svg id="Layer_1" data-name="Layer 1" xmlns="http://www.w3.org/2000/svg" version="1.1" viewBox="0 0 173 48">
  <defs>
    <style>
      .cls-1 {
        fill: #fff;
        fill-rule: evenodd;
        stroke-width: 0px;
      }
    </style>
  </defs>
  <path class="cls-1" d="M98.1,30.7h-15.6V11.7h15.6v5.1h-8.2v2.2h7.8v4.2h-7.8v2.3h8.2v5.1ZM115.5,30.7h-15.6V11.7h15.6v5.1h-8.2v2.2h7.8v4.2h-7.8v2.3h8.2v5.1ZM172.2,30.7c-1.1-2.9-2.6-6-4.6-9.5,2.3-.7,3.7-2.2,3.7-4.4,0-3.4-3.2-5.1-8.2-5.1h-10.3v19h7.4v-7.8c1.6,2.8,2.8,5.4,3.6,7.8h8.3ZM160.2,20.2v-3.3h2.6c1.1,0,1.7.6,1.7,1.7s-.6,1.7-1.7,1.7h-2.6ZM151,30.7h-15.6V11.7h15.6v5.1h-8.2v2.2h7.8v4.2h-7.8v2.3h8.2v5.1ZM117.3,16.8h7.6c-3.2,2.6-5.8,5.5-7.8,8.7v5.1h16.8v-5.1h-8.4c1.9-2.8,4.6-5.6,8.4-8.7v-5.1h-16.6v5.1ZM61.9,11.7h9.5c5.9,0,10,3.9,10,9.5s-4.2,9.5-10,9.5h-9.5V11.7ZM69.2,25.5h1.7c1.8,0,2.8-1.2,2.8-4.4s-1-4.4-2.8-4.4h-1.7v8.7Z"/>
  <path class="cls-1" d="M41.1,7.3c.4-2.6,1.1-4.2,1.8-4.2h0c1.3,0,2.4,5.6,2.4,12.5s-1.1,12.5-2.4,12.5-1.1-1-1.5-2.6c-.6,5.9-2,9.9-3.6,9.9s-2.3-2.4-3-6.2c-.5,7.2-1.7,12.4-3.2,12.4s-1.8-2-2.4-5.4c-.7,6.8-2.5,11.6-4.5,11.6s-3.7-4.8-4.5-11.6c-.6,3.3-1.4,5.4-2.4,5.4-1.5,0-2.7-5.1-3.2-12.4-.7,3.8-1.8,6.2-3,6.2s-2.9-4-3.6-9.9c-.4,1.6-.9,2.6-1.5,2.6-1.3,0-2.4-5.6-2.4-12.5S5.4,3.1,6.8,3.1s1.4,1.6,1.8,4.2c.7-4.4,1.9-7.3,3.2-7.3s2.9,4.1,3.6,10c.6-4.3,1.6-7.1,2.7-7.1s2.8,5.4,3.2,12.9c.9-3.9,2.2-6.3,3.6-6.3s2.7,2.4,3.6,6.3c.5-7.5,1.7-12.9,3.2-12.9s2,2.7,2.7,7.1c.6-5.9,2-10,3.6-10s2.5,2.9,3.2,7.3ZM.8,14.4c0-3.1.6-5.6,1.4-5.6s1.4,2.5,1.4,5.6-.6,5.6-1.4,5.6-1.4-2.5-1.4-5.6ZM46.1,14.4c0-3.1.6-5.6,1.4-5.6s1.4,2.5,1.4,5.6-.6,5.6-1.4,5.6-1.4-2.5-1.4-5.6Z"/>
</svg>