<?xml version="1.0" encoding="UTF-8"?>
<svg xmlns="http://www.w3.org/2000/svg" version="1.1" viewBox="0 0 221.2 29.1">
  <defs>
    <style>
      .cls-1 {
        fill: #fff;
        fill-rule: evenodd;
      }
    </style>
  </defs>
  <!-- Generator: Adobe Illustrator 28.7.1, SVG Export Plug-In . SVG Version: 1.2.0 Build 142)  -->
  <g>
    <g id="Layer_1">
      <g id="Page-1">
        <g id="Desktop-Sell-Your-Music-1920">
          <g id="Store-Guide">
            <g id="Tidal">
              <path id="tidal" class="cls-1" d="M30.3,7.3L23,0l-7.3,7.3,7.3,7.3,7.3-7.3,7.3,7.3,7.3-7.3-7.3-7.3-7.3,7.3ZM1.2,7.3l7.3,7.3,7.3-7.3L8.5,0,1.2,7.3ZM23,29.1l7.3-7.3-7.3-7.3-7.3,7.3,7.3,7.3ZM173.5,19.2l3.8-9.7,3.7,9.7h-7.5ZM174.4,3.6l-10.3,24.9h6.1l1.8-4.9h10.5l1.8,4.9h6.2l-10.2-24.9h-5.9ZM139.1,23.6h-3.5v-15.1h3.7c.2,0,.5,0,.7,0,4,.1,7.2,3.5,7,7.5,0,4.7-3.2,7.6-7.9,7.6h0ZM139.2,3.6h-9.2v24.9h9.5c6.6,0,13.2-4.2,13.2-12.5,0-8.8-6.8-12.4-13.6-12.4h0ZM211.4,23.6V3.6h-5.7v24.9h15.5v-4.9h-9.8ZM105.4,28.5h5.7V3.7h-5.7v24.9ZM68.3,8.5h7.3v20h5.6V8.5h7.3V3.6h-20.2v4.8Z"/>
            </g>
          </g>
        </g>
      </g>
    </g>
  </g>
</svg>