<svg xmlns="http://www.w3.org/2000/svg" width="93.435" height="23.541" viewBox="0 0 93.435 23.541">
  <g id="layer1" transform="translate(0)">
    <g id="g5003" transform="translate(0 0)">
      <g id="g5005" transform="translate(0)">
        <g id="g5043">
          <path id="path5069" d="M-677.052-61.383a11.77,11.77,0,0,0-11.77,11.77,11.77,11.77,0,0,0,11.77,11.77,11.77,11.77,0,0,0,11.77-11.77A11.77,11.77,0,0,0-677.052-61.383Zm0,17.263a5.166,5.166,0,0,1-5.1-5.493,5.167,5.167,0,0,1,5.1-5.493,5.166,5.166,0,0,1,5.1,5.493A5.166,5.166,0,0,1-677.052-44.119Zm-34.527-5.493a11.579,11.579,0,0,0-11.378-11.77,11.579,11.579,0,0,0-11.378,11.77,11.621,11.621,0,0,0,11.574,11.77A10.787,10.787,0,0,0-712.185-45.3h-6.849a4.166,4.166,0,0,1-3.727,1.766c-2.647,0-4.334-1.822-4.863-4.316h15.917A12.26,12.26,0,0,0-711.579-49.612Zm-11.378-6.278a4.688,4.688,0,0,1,4.569,3.923h-9.147C-726.924-54.419-725.3-55.89-722.957-55.89Zm-22.756,17.852-13-22.658h7.656l5.348,10.3,5.348-10.3h7.656Zm45.512,0-13-22.658h7.656l5.347,10.3,5.348-10.3h7.656Z" transform="translate(758.717 61.383)" fill="#fff"/>
        </g>
      </g>
    </g>
  </g>
</svg>
