<?xml version="1.0" encoding="UTF-8"?>
<svg id="Layer_1" data-name="Layer 1" xmlns="http://www.w3.org/2000/svg" version="1.1" viewBox="0 0 512 114.3">
  <defs>
    <style>
      .cls-1 {
        fill: #fff;
        stroke-width: 0px;
      }
    </style>
  </defs>
  <path class="cls-1" d="M159.9,17.8c-1.9-7-7.4-12.6-14.4-14.4C132.7,0,81.6,0,81.6,0,81.6,0,30.6,0,17.8,3.4c-7,1.9-12.6,7.4-14.4,14.4C0,30.6,0,57.2,0,57.2,0,57.2,0,83.7,3.4,96.5c1.9,7,7.4,12.6,14.4,14.4,12.7,3.4,63.8,3.4,63.8,3.4,0,0,51.1,0,63.8-3.4,7-1.9,12.6-7.4,14.4-14.4,3.4-12.7,3.4-39.3,3.4-39.3,0,0,0-26.6-3.4-39.3ZM65.3,81.6v-49l42.4,24.5-42.4,24.5Z"/>
  <g id="youtube-paths">
    <path class="cls-1" d="M197.8,74.3l-18.3-66.2h16l6.4,30c1.6,7.4,2.8,13.7,3.6,18.9h.5c.5-3.7,1.7-10,3.6-18.8l6.7-30.1h16l-18.6,66.2v31.8h-15.9v-31.8h0Z"/>
    <path class="cls-1" d="M237,104c-3.2-2.2-5.5-5.6-6.9-10.2-1.4-4.6-2-10.7-2-18.3v-10.4c0-7.7.8-13.9,2.3-18.6,1.6-4.7,4-8.1,7.3-10.2,3.3-2.1,7.6-3.2,13-3.2s9.5,1.1,12.7,3.3c3.2,2.2,5.5,5.6,7,10.2,1.5,4.6,2.2,10.8,2.2,18.5v10.4c0,7.6-.7,13.8-2.2,18.4-1.4,4.6-3.8,8-7,10.2-3.2,2.1-7.6,3.2-13.1,3.2-5.7,0-10.1-1.1-13.4-3.3ZM255.1,92.8c.9-2.3,1.3-6.1,1.3-11.4v-22.3c0-5.1-.4-8.9-1.3-11.3-.9-2.4-2.5-3.6-4.7-3.6s-3.7,1.2-4.6,3.6c-.9,2.4-1.3,6.1-1.3,11.3v22.3c0,5.3.4,9.1,1.3,11.4.9,2.3,2.4,3.5,4.7,3.5s3.8-1.2,4.7-3.5Z"/>
    <path class="cls-1" d="M324.7,106.1h-12.6l-1.4-8.8h-.3c-3.4,6.6-8.6,9.9-15.4,9.9s-8.3-1.6-10.5-4.7c-2.3-3.1-3.4-8-3.4-14.6v-53.5h16.1v52.5c0,3.2.3,5.5,1,6.8.7,1.4,1.9,2,3.5,2s2.7-.4,4-1.3c1.3-.9,2.2-1.9,2.9-3.3v-56.9h16.1v71.6Z"/>
    <path class="cls-1" d="M368.5,21.1h-16v85h-15.8V21.1h-16v-13h47.8v13Z"/>
    <path class="cls-1" d="M407.3,106.1h-12.6l-1.4-8.8h-.3c-3.4,6.6-8.6,9.9-15.4,9.9s-8.3-1.6-10.5-4.7c-2.3-3.1-3.4-8-3.4-14.6v-53.5h16.1v52.5c0,3.2.3,5.5,1,6.8.7,1.4,1.9,2,3.5,2s2.7-.4,4-1.3c1.3-.9,2.2-1.9,2.9-3.3v-56.9h16.1v71.6Z"/>
    <path class="cls-1" d="M460.7,45.9c-1-4.5-2.6-7.8-4.7-9.8-2.2-2-5.2-3-9-3s-5.7.8-8.3,2.5c-2.6,1.7-4.6,3.9-6,6.6h-.1V4.5h-15.5v101.6h13.3l1.6-6.8h.3c1.2,2.4,3.1,4.3,5.6,5.7,2.5,1.4,5.3,2.1,8.3,2.1,5.4,0,9.5-2.5,12-7.5,2.6-5,3.9-12.9,3.9-23.5v-11.3c0-8-.5-14.3-1.5-18.8ZM445.9,75.1c0,5.2-.2,9.3-.6,12.3-.4,3-1.1,5.1-2.2,6.3-1,1.2-2.4,1.9-4.1,1.9s-2.6-.3-3.7-.9c-1.1-.6-2-1.6-2.7-2.8v-40.6c.5-1.9,1.5-3.5,2.8-4.8,1.3-1.2,2.8-1.9,4.3-1.9s2.9.6,3.8,1.9c.9,1.3,1.5,3.4,1.9,6.5.3,3,.5,7.4.5,13v9.2h0Z"/>
    <path class="cls-1" d="M485,79.3c0,4.6.1,8,.4,10.3.3,2.3.8,4,1.7,5,.9,1,2.2,1.6,4,1.6s4.1-.9,5-2.8c.9-1.9,1.4-5,1.5-9.3l13.9.8c0,.6.1,1.5.1,2.6,0,6.6-1.8,11.6-5.4,14.8-3.6,3.3-8.7,4.9-15.3,4.9s-13.5-2.5-16.7-7.5c-3.2-5-4.8-12.7-4.8-23.1v-12.5c0-10.7,1.7-18.6,5-23.5,3.3-4.9,9-7.4,17-7.4s9.8,1,12.7,3c3,2,5,5.2,6.2,9.5,1.2,4.3,1.8,10.2,1.8,17.8v12.3h-27v3.6ZM487.1,45.5c-.8,1-1.4,2.7-1.6,5-.3,2.3-.4,5.8-.4,10.5v5.1h11.8v-5.1c0-4.6-.2-8.1-.5-10.5-.3-2.4-.9-4-1.7-5-.8-1-2.1-1.5-3.8-1.5-1.7,0-3,.5-3.8,1.5Z"/>
  </g>
</svg>